<svg width="15" height="15" viewBox="0 0 15 15" fill="none" xmlns="http://www.w3.org/2000/svg">
<path fill-rule="evenodd" clip-rule="evenodd" d="M11.091 9.17675C11.667 8.2555 12 7.16663 12 6C12 2.68629 9.31371 0 6 0C2.68629 0 0 2.68629 0 6C0 9.31371 2.68629 12 6 12C7.42398 12 8.73211 11.5039 9.76099 10.6752L13.0607 13.9749C13.4512 14.3654 14.0843 14.3654 14.4749 13.9749C14.8654 13.5843 14.8654 12.9512 14.4749 12.5607L11.091 9.17675ZM6 10C8.20914 10 10 8.20914 10 6C10 3.79086 8.20914 2 6 2C3.79086 2 2 3.79086 2 6C2 8.20914 3.79086 10 6 10Z" fill="white"/>
</svg>
