<svg width="18" height="15" viewBox="0 0 18 15" fill="none" xmlns="http://www.w3.org/2000/svg">
<path fill-rule="evenodd" clip-rule="evenodd" d="M17.5 2.19998C16.9 2.49998 16.2 2.69998 15.5 2.79998C16.2 2.39998 16.8 1.69998 17 0.799976C16.3 1.19998 15.6 1.49998 14.8 1.69998C14.2 0.999976 13.3 0.599976 12.3 0.599976C10.4 0.599976 8.80001 2.19998 8.80001 4.09998C8.80001 4.39998 8.80001 4.59998 8.90001 4.89998C6.00001 4.79998 3.40001 3.29998 1.70001 1.19998C1.40001 1.69998 1.20001 2.29998 1.20001 2.99998C1.20001 4.19998 1.80001 5.29998 2.80001 5.89998C2.20001 5.89998 1.70001 5.69998 1.20001 5.49998V5.49998C1.20001 7.19998 2.40001 8.59998 4.00001 8.99998C3.70001 9.09998 3.40001 9.09998 3.10001 9.09998C2.90001 9.09998 2.70001 9.09998 2.40001 8.99998C2.80001 10.4 4.10001 11.4 5.70001 11.5C4.50001 12.4 3.00001 13 1.40001 13C1.10001 13 0.800006 13 0.600006 13C2.10001 14 4.00001 14.6 5.90001 14.6C12.3 14.6 15.8 9.19998 15.8 4.49998C15.8 4.29998 15.8 4.19998 15.8 3.99998C16.4 3.49998 17 2.89998 17.5 2.19998V2.19998V2.19998Z" fill="black"/>
</svg>
